<?xml version="1.0" standalone="no"?>
<!DOCTYPE svg PUBLIC "-//W3C//DTD SVG 20010904//EN"
 "http://www.w3.org/TR/2001/REC-SVG-20010904/DTD/svg10.dtd">
<svg version="1.0" xmlns="http://www.w3.org/2000/svg"
 width="800.000000pt" height="800.000000pt" viewBox="0 0 800.000000 800.000000"
 preserveAspectRatio="xMidYMid meet">
<metadata>
Created by potrace 1.14, written by Peter Selinger 2001-2017
</metadata>
<g transform="translate(0.000000,800.000000) scale(0.100000,-0.100000)"
fill="#000000" stroke="none">
<path d="M3779 7976 c-2 -2 -44 -6 -94 -10 -92 -6 -157 -13 -210 -21 -16 -2
-52 -7 -80 -10 -27 -4 -66 -10 -85 -15 -19 -5 -55 -12 -80 -15 -82 -12 -353
-85 -503 -136 -584 -198 -1094 -515 -1532 -954 -208 -208 -358 -390 -509 -620
-72 -109 -206 -336 -206 -349 0 -3 -10 -23 -23 -44 -13 -20 -36 -66 -51 -102
-16 -36 -40 -89 -53 -118 -78 -172 -203 -551 -228 -692 -2 -14 -13 -68 -24
-120 -11 -52 -25 -133 -31 -180 -6 -47 -13 -96 -15 -110 -4 -28 -16 -152 -21
-220 -4 -63 -4 -458 0 -500 3 -19 7 -75 11 -125 3 -49 8 -97 10 -105 2 -8 7
-40 10 -70 3 -30 8 -62 10 -70 2 -8 6 -33 10 -55 26 -181 129 -569 181 -682 7
-17 14 -35 14 -40 0 -9 53 -137 98 -238 41 -91 134 -272 182 -356 48 -82 189
-301 199 -309 3 -3 22 -27 40 -55 19 -27 38 -52 41 -55 3 -3 19 -23 35 -45 17
-22 32 -42 35 -45 3 -3 30 -34 60 -70 264 -315 679 -667 995 -845 22 -12 60
-34 85 -49 42 -24 302 -154 380 -189 67 -30 146 -60 265 -102 100 -35 121 -46
127 -66 4 -13 17 -61 29 -107 l21 -82 1234 0 c808 0 1235 3 1239 10 3 5 8 18
10 27 2 10 11 43 19 73 9 30 19 83 22 117 l7 62 46 18 c25 9 57 23 71 30 14 7
28 13 33 13 18 0 347 166 450 227 682 404 1223 985 1564 1683 185 377 318 811
368 1200 3 25 7 61 10 80 4 33 12 113 21 210 5 68 5 437 -1 505 -3 33 -7 89
-10 125 -3 36 -7 76 -10 90 -2 14 -7 50 -10 81 -3 31 -7 65 -9 75 -2 11 -13
71 -25 134 -77 405 -235 834 -452 1220 -38 68 -222 351 -248 382 -6 7 -34 42
-62 78 -110 142 -186 228 -344 385 -151 152 -292 272 -460 394 -117 85 -309
211 -321 211 -3 0 -18 8 -32 19 -93 66 -463 236 -666 307 -101 36 -389 118
-443 127 -15 3 -48 10 -73 15 -68 16 -150 31 -200 37 -25 3 -56 8 -70 10 -14
2 -54 7 -90 11 -36 4 -78 8 -95 11 -38 5 -561 13 -566 9z"/>
</g>
</svg>
