<?xml version="1.0" standalone="no"?>
<!DOCTYPE svg PUBLIC "-//W3C//DTD SVG 20010904//EN"
 "http://www.w3.org/TR/2001/REC-SVG-20010904/DTD/svg10.dtd">
<svg version="1.0" xmlns="http://www.w3.org/2000/svg"
 width="576.000000pt" height="576.000000pt" viewBox="0 0 576.000000 576.000000"
 preserveAspectRatio="xMidYMid meet">
<metadata>
Created by potrace 1.14, written by Peter Selinger 2001-2017
</metadata>
<g transform="translate(0.000000,576.000000) scale(0.100000,-0.100000)"
fill="#000000" stroke="none">
<path d="M2747 5745 c-1 -2 -40 -5 -87 -9 -157 -12 -188 -16 -320 -42 -105
-20 -115 -22 -115 -24 0 -1 -9 -3 -20 -5 -127 -23 -391 -119 -574 -207 -332
-161 -635 -391 -887 -673 -44 -49 -96 -110 -114 -135 -19 -25 -37 -47 -40 -50
-3 -3 -33 -45 -65 -95 -33 -49 -63 -92 -66 -95 -9 -8 -99 -171 -99 -180 0 -5
-3 -10 -8 -12 -10 -4 -102 -203 -140 -303 -41 -108 -45 -119 -47 -125 0 -3
-11 -37 -23 -76 -25 -83 -68 -261 -77 -319 -7 -51 -14 -92 -20 -130 -21 -110
-27 -505 -12 -665 25 -255 109 -588 208 -820 120 -283 328 -608 523 -819 342
-368 703 -605 1201 -787 27 -10 33 -11 49 -13 8 0 17 -13 20 -28 13 -61 15
-69 24 -98 l8 -30 891 -3 890 -2 16 57 c9 32 19 77 23 99 8 54 11 57 69 78 63
23 317 149 355 176 15 11 31 20 34 20 6 0 136 84 211 137 82 57 261 209 340
288 111 112 309 348 323 385 3 8 9 17 13 20 37 26 299 509 299 551 0 8 4 19 9
24 7 9 67 173 76 213 3 9 18 65 34 125 16 59 29 108 29 110 0 2 13 72 19 102
2 11 6 38 9 60 3 22 8 51 10 65 27 144 26 582 -2 770 -13 89 -60 317 -74 360
-5 14 -18 59 -31 100 -35 121 -85 245 -165 405 -80 162 -122 238 -135 243 -5
2 -9 8 -9 14 0 26 -176 265 -278 377 -152 168 -265 272 -432 397 -261 196
-586 360 -895 450 -66 20 -129 37 -140 40 -11 2 -40 8 -65 14 -101 22 -255 45
-375 56 -73 6 -362 13 -368 9z"/>
</g>
</svg>
